<?xml version="1.0" encoding="UTF-8"?>
<svg width="28px" height="28px" viewBox="0 0 28 28" version="1.1" xmlns="http://www.w3.org/2000/svg" xmlns:xlink="http://www.w3.org/1999/xlink">
    <!-- Generator: Sketch 51.2 (57519) - http://www.bohemiancoding.com/sketch -->
    <title>Cart-Button</title>
    <desc>Created with Sketch.</desc>
    <defs></defs>
    <g id="Page-1" stroke="none" stroke-width="1" fill="none" fill-rule="evenodd">
        <g id="Desktop-HD" transform="translate(-8.000000, -988.000000)">
            <g id="Sidebar" transform="translate(-68.000000, 0.000000)">
                <g id="Cart-Button" transform="translate(76.000000, 988.000000)">
                    <rect id="Rectangle" fill-opacity="0.1" fill="#000026" x="0" y="0" width="28" height="28" rx="4"></rect>
                    <g id="baseline-lock_open-24px" transform="translate(4.000000, 4.000000)">
                        <polygon id="Shape" points="0 0 20 0 20 20 0 20"></polygon>
                        <path d="M10,14.1666667 C10.9166667,14.1666667 11.6666667,13.4166667 11.6666667,12.5 C11.6666667,11.5833333 10.9166667,10.8333333 10,10.8333333 C9.08333333,10.8333333 8.33333333,11.5833333 8.33333333,12.5 C8.33333333,13.4166667 9.08333333,14.1666667 10,14.1666667 Z M15,6.66666667 L14.1666667,6.66666667 L14.1666667,5 C14.1666667,2.7 12.3,0.833333333 10,0.833333333 C7.7,0.833333333 5.83333333,2.7 5.83333333,5 L7.41666667,5 C7.41666667,3.575 8.575,2.41666667 10,2.41666667 C11.425,2.41666667 12.5833333,3.575 12.5833333,5 L12.5833333,6.66666667 L5,6.66666667 C4.08333333,6.66666667 3.33333333,7.41666667 3.33333333,8.33333333 L3.33333333,16.6666667 C3.33333333,17.5833333 4.08333333,18.3333333 5,18.3333333 L15,18.3333333 C15.9166667,18.3333333 16.6666667,17.5833333 16.6666667,16.6666667 L16.6666667,8.33333333 C16.6666667,7.41666667 15.9166667,6.66666667 15,6.66666667 Z M15,16.6666667 L5,16.6666667 L5,8.33333333 L15,8.33333333 L15,16.6666667 Z" id="Shape" fill="#000000" fill-rule="nonzero"></path>
                    </g>
                </g>
            </g>
        </g>
    </g>
</svg>