<?xml version="1.0" encoding="UTF-8"?>
<svg width="28px" height="28px" viewBox="0 0 28 28" version="1.1" xmlns="http://www.w3.org/2000/svg" xmlns:xlink="http://www.w3.org/1999/xlink">
    <!-- Generator: Sketch 51.2 (57519) - http://www.bohemiancoding.com/sketch -->
    <title>Cart-Button</title>
    <desc>Created with Sketch.</desc>
    <defs></defs>
    <g id="Page-1" stroke="none" stroke-width="1" fill="none" fill-rule="evenodd">
        <g id="Desktop-HD" transform="translate(-8.000000, -988.000000)">
            <g id="Sidebar" transform="translate(-68.000000, 0.000000)">
                <g id="Cart-Button" transform="translate(76.000000, 988.000000)">
                    <rect id="Rectangle" fill-opacity="0.1" fill="#000026" x="0" y="0" width="28" height="28" rx="4"></rect>
                    <g id="baseline-cloud_download-24px" transform="translate(4.000000, 4.000000)">
                        <polygon id="Shape" points="0 0 20 0 20 20 0 20"></polygon>
                        <path d="M16.125,8.36666667 C15.5583333,5.49166667 13.0333333,3.33333333 10,3.33333333 C7.59166667,3.33333333 5.5,4.7 4.45833333,6.7 C1.95,6.96666667 0,9.09166667 0,11.6666667 C0,14.425 2.24166667,16.6666667 5,16.6666667 L15.8333333,16.6666667 C18.1333333,16.6666667 20,14.8 20,12.5 C20,10.3 18.2916667,8.51666667 16.125,8.36666667 Z M14.1666667,10.8333333 L10,15 L5.83333333,10.8333333 L8.33333333,10.8333333 L8.33333333,7.5 L11.6666667,7.5 L11.6666667,10.8333333 L14.1666667,10.8333333 Z" id="Shape" fill="#000026" fill-rule="nonzero"></path>
                    </g>
                </g>
            </g>
        </g>
    </g>
</svg>