<?xml version="1.0" encoding="UTF-8"?>
<svg width="28px" height="28px" viewBox="0 0 28 28" version="1.1" xmlns="http://www.w3.org/2000/svg" xmlns:xlink="http://www.w3.org/1999/xlink">
    <!-- Generator: Sketch 51.2 (57519) - http://www.bohemiancoding.com/sketch -->
    <title>Cart-Button</title>
    <desc>Created with Sketch.</desc>
    <defs></defs>
    <g id="Page-1" stroke="none" stroke-width="1" fill="none" fill-rule="evenodd">
        <g id="Desktop-HD" transform="translate(-8.000000, -988.000000)">
            <g id="Sidebar" transform="translate(-68.000000, 0.000000)">
                <g id="Cart-Button" transform="translate(76.000000, 988.000000)">
                    <rect id="Rectangle" fill-opacity="0.1" fill="#000026" x="0" y="0" width="28" height="28" rx="4"></rect>
                    <g id="baseline-delete_forever-24px" transform="translate(4.000000, 4.000000)">
                        <polygon id="Shape" points="0 0 20 0 20 20 0 20"></polygon>
                        <path d="M5,15.8333333 C5,16.75 5.75,17.5 6.66666667,17.5 L13.3333333,17.5 C14.25,17.5 15,16.75 15,15.8333333 L15,5.83333333 L5,5.83333333 L5,15.8333333 Z M7.05,9.9 L8.225,8.725 L10,10.4916667 L11.7666667,8.725 L12.9416667,9.9 L11.175,11.6666667 L12.9416667,13.4333333 L11.7666667,14.6083333 L10,12.8416667 L8.23333333,14.6083333 L7.05833333,13.4333333 L8.825,11.6666667 L7.05,9.9 Z M12.9166667,3.33333333 L12.0833333,2.5 L7.91666667,2.5 L7.08333333,3.33333333 L4.16666667,3.33333333 L4.16666667,5 L15.8333333,5 L15.8333333,3.33333333 L12.9166667,3.33333333 Z" id="Shape" fill="#000026" fill-rule="nonzero"></path>
                        <polygon id="Shape" points="0 0 20 0 20 20 0 20"></polygon>
                    </g>
                </g>
            </g>
        </g>
    </g>
</svg>