<?xml version="1.0" encoding="UTF-8"?>
<svg width="28px" height="28px" viewBox="0 0 28 28" version="1.1" xmlns="http://www.w3.org/2000/svg" xmlns:xlink="http://www.w3.org/1999/xlink">
    <!-- Generator: Sketch 51.2 (57519) - http://www.bohemiancoding.com/sketch -->
    <title>Cart-Button</title>
    <desc>Created with Sketch.</desc>
    <defs></defs>
    <g id="Page-1" stroke="none" stroke-width="1" fill="none" fill-rule="evenodd">
        <g id="Desktop-HD" transform="translate(-307.000000, -13.000000)">
            <g id="Topbar" transform="translate(249.000000, -1.000000)">
                <g id="Cart-Button" transform="translate(58.000000, 14.000000)">
                    <rect id="Rectangle" fill-opacity="0.1" fill="#000026" x="0" y="0" width="28" height="28" rx="4"></rect>
                    <g id="baseline-shopping_cart-24px-(1)" transform="translate(4.000000, 4.000000)">
                        <path d="M5.83333333,15 C4.91666667,15 4.175,15.75 4.175,16.6666667 C4.175,17.5833333 4.91666667,18.3333333 5.83333333,18.3333333 C6.75,18.3333333 7.5,17.5833333 7.5,16.6666667 C7.5,15.75 6.75,15 5.83333333,15 Z M0.833333333,1.66666667 L0.833333333,3.33333333 L2.5,3.33333333 L5.5,9.65833333 L4.375,11.7 C4.24166667,11.9333333 4.16666667,12.2083333 4.16666667,12.5 C4.16666667,13.4166667 4.91666667,14.1666667 5.83333333,14.1666667 L15.8333333,14.1666667 L15.8333333,12.5 L6.18333333,12.5 C6.06666667,12.5 5.975,12.4083333 5.975,12.2916667 L6,12.1916667 L6.75,10.8333333 L12.9583333,10.8333333 C13.5833333,10.8333333 14.1333333,10.4916667 14.4166667,9.975 L17.4,4.56666667 C17.4666667,4.45 17.5,4.30833333 17.5,4.16666667 C17.5,3.70833333 17.125,3.33333333 16.6666667,3.33333333 L4.34166667,3.33333333 L3.55833333,1.66666667 L0.833333333,1.66666667 Z M14.1666667,15 C13.25,15 12.5083333,15.75 12.5083333,16.6666667 C12.5083333,17.5833333 13.25,18.3333333 14.1666667,18.3333333 C15.0833333,18.3333333 15.8333333,17.5833333 15.8333333,16.6666667 C15.8333333,15.75 15.0833333,15 14.1666667,15 Z" id="Shape" fill="#000026" fill-rule="nonzero"></path>
                        <polygon id="Shape" points="0 0 20 0 20 20 0 20"></polygon>
                    </g>
                </g>
            </g>
        </g>
    </g>
</svg>