<?xml version="1.0" standalone="no"?>
<!DOCTYPE svg PUBLIC "-//W3C//DTD SVG 20010904//EN"
 "http://www.w3.org/TR/2001/REC-SVG-20010904/DTD/svg10.dtd">
<svg version="1.0" xmlns="http://www.w3.org/2000/svg"
 width="280.000000pt" height="280.000000pt" viewBox="0 0 280.000000 280.000000"
 preserveAspectRatio="xMidYMid meet">
<metadata>
Created by potrace 1.11, written by Peter Selinger 2001-2013
</metadata>
<g transform="translate(0.000000,280.000000) scale(0.100000,-0.100000)"
fill="#000000" stroke="none">
<path d="M1303 2786 c-107 -35 -187 -108 -223 -205 -20 -52 -21 -75 -21 -515
0 -405 2 -467 16 -510 22 -65 57 -116 105 -155 l40 -32 0 566 c0 311 0 567 0
570 0 3 7 19 16 36 67 131 261 133 324 3 18 -37 20 -61 20 -308 0 -204 3 -267
12 -264 18 6 123 100 138 123 9 14 12 71 11 215 -2 224 -3 237 -37 307 -49
103 -160 172 -287 179 -45 2 -88 -1 -114 -10z"/>
<path d="M364 2255 c-101 -23 -194 -99 -238 -194 -33 -72 -30 -188 7 -263 30
-62 86 -121 145 -154 20 -11 125 -69 232 -129 107 -60 211 -117 230 -128 212
-119 304 -167 341 -178 63 -17 161 -13 211 9 l42 18 -69 39 c-39 21 -88 48
-110 60 -22 12 -56 31 -75 42 -19 11 -194 109 -389 217 -194 108 -364 207
-377 219 -50 48 -64 139 -31 204 32 61 115 100 188 88 31 -5 260 -126 476
-251 l41 -24 -5 33 c-5 37 -20 97 -34 144 -10 32 -18 37 -169 121 -25 14 -75
42 -111 62 -126 71 -206 88 -305 65z"/>
<path d="M2294 2259 c-49 -9 -99 -33 -269 -129 -71 -40 -150 -84 -175 -98
-311 -172 -431 -242 -462 -270 -47 -43 -101 -148 -96 -190 l3 -30 240 135
c132 74 265 148 295 165 30 16 141 78 245 136 258 144 280 151 363 111 84 -41
120 -141 82 -227 -22 -49 -39 -61 -317 -215 -111 -62 -198 -115 -194 -120 13
-13 106 -44 154 -51 40 -6 53 -3 99 23 29 16 108 60 176 98 142 79 190 122
229 202 36 73 39 190 6 263 -65 142 -225 226 -379 197z"/>
<path d="M1560 1595 c-30 -6 -64 -16 -74 -22 -18 -10 -17 -12 14 -28 19 -10
50 -27 69 -38 20 -11 167 -93 326 -182 160 -89 306 -171 325 -182 19 -10 80
-44 134 -74 122 -66 160 -101 176 -158 30 -113 -51 -216 -170 -216 -61 0 -67
3 -380 180 -138 78 -170 95 -170 90 0 -14 24 -118 36 -157 14 -43 22 -51 82
-84 37 -21 82 -46 100 -56 18 -10 63 -35 100 -56 100 -56 150 -74 217 -75 124
-1 218 44 292 141 115 151 60 381 -114 477 -21 12 -67 38 -103 57 -36 20 -94
53 -130 73 -36 21 -90 51 -120 67 -96 53 -162 89 -285 158 -166 93 -219 107
-325 85z"/>
<path d="M1580 860 c0 -602 0 -600 -51 -650 -81 -77 -218 -64 -279 27 -25 36
-25 38 -30 320 l-5 284 -66 -58 c-36 -32 -72 -66 -78 -77 -16 -23 -16 -400 0
-459 25 -96 90 -170 189 -216 46 -22 69 -26 145 -25 79 0 97 3 145 28 74 38
144 113 170 184 21 55 21 72 21 517 0 501 -1 510 -58 596 -23 34 -83 89 -97
89 -3 0 -6 -252 -6 -560z"/>
<path d="M555 1312 c-16 -10 -96 -55 -176 -100 -162 -92 -206 -129 -247 -211
-34 -71 -38 -178 -8 -255 49 -128 200 -220 341 -209 74 5 117 24 328 143 106
59 224 125 263 146 38 21 123 68 188 104 139 76 192 120 228 187 29 52 51 130
39 138 -4 2 -21 -4 -37 -14 -118 -72 -945 -527 -978 -539 -152 -52 -290 117
-207 252 26 42 30 44 281 184 113 62 211 119 218 127 11 10 1 16 -60 35 -101
31 -137 33 -173 12z"/>
</g>
</svg>
